<svg xmlns="http://www.w3.org/2000/svg" viewBox="0 0 360 135" role="img" aria-labelledby="title desc">
<title id="title">Hospital Clínico Félix Bulnes</title>
<desc id="desc">Identidad visual del Hospital Clínico Félix Bulnes</desc>
<rect width="360" height="135" rx="12" fill="#ffffff"/>
<g transform="translate(18 16)">
  <rect x="34" y="0" width="20" height="20" rx="2" fill="#2c6492"/>
  <rect x="58" y="5" width="20" height="20" rx="2" fill="#f2a13a"/>
  <rect x="10" y="20" width="20" height="20" rx="2" fill="#2c6492"/>
  <rect x="34" y="24" width="20" height="20" rx="2" fill="#5a9fc4"/>
  <rect x="58" y="29" width="20" height="20" rx="2" fill="#2c6492"/>
  <rect x="82" y="18" width="20" height="20" rx="2" fill="#f2a13a"/>
  <rect x="22" y="46" width="20" height="20" rx="2" fill="#f2a13a"/>
  <rect x="46" y="49" width="20" height="20" rx="2" fill="#2c6492"/>
  <rect x="70" y="52" width="20" height="20" rx="2" fill="#5a9fc4"/>
</g>
<g transform="translate(130 26)">
  <text x="0" y="18" font-family="Arial, Helvetica, sans-serif" font-size="14" font-weight="700" fill="#687785">Hospital Clínico</text>
  <text x="0" y="54" font-family="Arial, Helvetica, sans-serif" font-size="34" font-weight="700" fill="#2c6492">Félix Bulnes</text>
  <text x="0" y="78" font-family="Arial, Helvetica, sans-serif" font-size="12" font-weight="700" fill="#687785">Servicio de Salud Metropolitano Occidente</text>
  <rect x="0" y="91" width="70" height="4" fill="#c85b6b"/>
  <rect x="74" y="91" width="70" height="4" fill="#f2a13a"/>
  <rect x="148" y="91" width="70" height="4" fill="#3b8aa3"/>
</g>
</svg>